{"asset":{"generator":"3D Builder","version":"2.0"},"scene":0,"scenes":[{"nodes":[0]}],"nodes":[{"mesh":0,"matrix":[1,0,0,0,0,-1.1920928955078125E-7,-0.99999988079071045,0,0,0.99999988079071045,-1.1920928955078125E-7,0,-0.096900992095470428,-0.015564355067908764,0.086867935955524445,1]}],"meshes":[{"primitives":[{"attributes":{"POSITION":0},"mode":4,"indices":1,"material":0}]}],"materials":[{"name":"Metallic","pbrMetallicRoughness":{"baseColorFactor":[1,0.0018211619462817907,0.040915198624134064,1],"metallicFactor":0,"roughnessFactor":0},"alphaMode":"OPAQUE"}],"accessors":[{"bufferView":0,"byteOffset":0,"count":290,"componentType":5126,"type":"VEC3","min":[0,0.07714805006980896,0.015564368106424809],"max":[0.19380198419094086,0.096587821841239929,0.18930388987064362]},{"bufferView":1,"byteOffset":0,"count":1764,"componentType":5125,"type":"SCALAR"}],"bufferViews":[{"buffer":0,"byteOffset":0,"byteLength":3480,"byteStride":12,"target":34962},{"buffer":0,"byteOffset":3480,"byteLength":7056,"target":34963}],"buffers":[{"byteLength":10536,"uri":"R-OBJ.bin"}]}